<?xml version="1.0" encoding="UTF-8" standalone="no"?>
<!DOCTYPE svg PUBLIC "-//W3C//DTD SVG 1.1//EN"
 "http://www.w3.org/Graphics/SVG/1.1/DTD/svg11.dtd">
<!-- Generated by graphviz version 2.40.1 (20161225.0304)
 -->
<!-- Title: finite_automaton Pages: 1 -->
<svg width="244pt" height="94pt"
 viewBox="0.00 0.00 243.99 94.50" xmlns="http://www.w3.org/2000/svg" xmlns:xlink="http://www.w3.org/1999/xlink">
<g id="graph0" class="graph" transform="scale(1 1) rotate(0) translate(4 90.496)">
<title>finite_automaton</title>
<polygon fill="#ffffff" stroke="transparent" points="-4,4 -4,-90.496 239.9919,-90.496 239.9919,4 -4,4"/>
<!-- q0 -->
<g id="node1" class="node">
<title>q0</title>
<ellipse fill="none" stroke="#000000" cx="117.748" cy="-26.748" rx="22.9609" ry="22.9609"/>
<ellipse fill="none" stroke="#000000" cx="117.748" cy="-26.748" rx="26.9983" ry="26.9983"/>
<text text-anchor="middle" x="117.748" y="-23.048" font-family="Times,serif" font-size="14.00" fill="#000000">q0</text>
</g>
<!-- q0&#45;&gt;q0 -->
<g id="edge3" class="edge">
<title>q0&#45;&gt;q0</title>
<path fill="none" stroke="#000000" d="M109.5483,-52.499C109.0851,-62.8271 111.8183,-71.496 117.748,-71.496 121.5467,-71.496 124.0336,-67.9383 125.2086,-62.6658"/>
<polygon fill="#000000" stroke="#000000" points="128.7133,-62.7265 125.9476,-52.499 121.7318,-62.2189 128.7133,-62.7265"/>
<text text-anchor="middle" x="117.748" y="-75.296" font-family="Times,serif" font-size="14.00" fill="#000000">1</text>
</g>
<!-- q1 -->
<g id="node2" class="node">
<title>q1</title>
<ellipse fill="none" stroke="#000000" cx="213.2439" cy="-26.748" rx="22.9987" ry="22.9987"/>
<text text-anchor="middle" x="213.2439" y="-23.048" font-family="Times,serif" font-size="14.00" fill="#000000">q1</text>
</g>
<!-- q0&#45;&gt;q1 -->
<g id="edge2" class="edge">
<title>q0&#45;&gt;q1</title>
<path fill="none" stroke="#000000" d="M144.6031,-26.748C155.6692,-26.748 168.6002,-26.748 180.2364,-26.748"/>
<polygon fill="#000000" stroke="#000000" points="180.468,-30.2481 190.4679,-26.748 180.4679,-23.2481 180.468,-30.2481"/>
<text text-anchor="middle" x="167.496" y="-30.548" font-family="Times,serif" font-size="14.00" fill="#000000">0</text>
</g>
<!-- q1&#45;&gt;q0 -->
<g id="edge4" class="edge">
<title>q1&#45;&gt;q0</title>
<path fill="none" stroke="#000000" d="M193.1331,-15.2594C186.7413,-12.1932 179.5069,-9.3022 172.496,-7.748 165.1352,-6.1162 157.3926,-7.0679 150.1224,-9.2302"/>
<polygon fill="#000000" stroke="#000000" points="148.7205,-6.0177 140.5815,-12.8005 151.1739,-12.5737 148.7205,-6.0177"/>
<text text-anchor="middle" x="167.496" y="-11.548" font-family="Times,serif" font-size="14.00" fill="#000000">0</text>
</g>
<!-- q1&#45;&gt;q1 -->
<g id="edge5" class="edge">
<title>q1&#45;&gt;q1</title>
<path fill="none" stroke="#000000" d="M205.1954,-48.1313C204.2017,-58.4165 206.8846,-67.496 213.2439,-67.496 217.3179,-67.496 219.8831,-63.7698 220.9393,-58.3874"/>
<polygon fill="#000000" stroke="#000000" points="224.4462,-58.2458 221.2925,-48.1313 217.4503,-58.0048 224.4462,-58.2458"/>
<text text-anchor="middle" x="213.2439" y="-71.296" font-family="Times,serif" font-size="14.00" fill="#000000">1</text>
</g>
<!-- iq0 -->
<g id="node3" class="node">
<title>iq0</title>
</g>
<!-- iq0&#45;&gt;q0 -->
<g id="edge1" class="edge">
<title>iq0&#45;&gt;q0</title>
<path fill="none" stroke="#0000ff" d="M54.2274,-26.748C62.5578,-26.748 71.8652,-26.748 80.7317,-26.748"/>
<polygon fill="#0000ff" stroke="#0000ff" points="80.8526,-30.2481 90.8525,-26.748 80.8525,-23.2481 80.8526,-30.2481"/>
</g>
</g>
</svg>
