<?xml version="1.0" encoding="UTF-8" standalone="no"?>
<!DOCTYPE svg PUBLIC "-//W3C//DTD SVG 1.1//EN"
 "http://www.w3.org/Graphics/SVG/1.1/DTD/svg11.dtd">
<!-- Generated by graphviz version 2.40.1 (20161225.0304)
 -->
<!-- Title: finite_automaton Pages: 1 -->
<svg width="576pt" height="173pt"
 viewBox="0.00 0.00 576.00 172.89" xmlns="http://www.w3.org/2000/svg" xmlns:xlink="http://www.w3.org/1999/xlink">
<g id="graph0" class="graph" transform="scale(.324 .324) rotate(0) translate(4 529.5975)">
<title>finite_automaton</title>
<polygon fill="#ffffff" stroke="transparent" points="-4,4 -4,-529.5975 1773.722,-529.5975 1773.722,4 -4,4"/>
<!-- q0 -->
<g id="node1" class="node">
<title>q0</title>
<ellipse fill="none" stroke="#000000" cx="117.748" cy="-353.5975" rx="22.9609" ry="22.9609"/>
<ellipse fill="none" stroke="#000000" cx="117.748" cy="-353.5975" rx="26.9983" ry="26.9983"/>
<text text-anchor="middle" x="117.748" y="-349.8975" font-family="Times,serif" font-size="14.00" fill="#000000">q0</text>
</g>
<!-- q1 -->
<g id="node10" class="node">
<title>q1</title>
<ellipse fill="none" stroke="#000000" cx="213.2439" cy="-190.5975" rx="22.9987" ry="22.9987"/>
<text text-anchor="middle" x="213.2439" y="-186.8975" font-family="Times,serif" font-size="14.00" fill="#000000">q1</text>
</g>
<!-- q0&#45;&gt;q1 -->
<g id="edge2" class="edge">
<title>q0&#45;&gt;q1</title>
<path fill="none" stroke="#000000" d="M131.4302,-330.2435C148.6101,-300.9195 178.0671,-250.6401 196.5534,-219.0862"/>
<polygon fill="#000000" stroke="#000000" points="199.6496,-220.7251 201.6848,-210.3275 193.6098,-217.1865 199.6496,-220.7251"/>
<text text-anchor="middle" x="167.496" y="-281.3975" font-family="Times,serif" font-size="14.00" fill="#000000">0</text>
</g>
<!-- q8 -->
<g id="node15" class="node">
<title>q8</title>
<ellipse fill="none" stroke="#000000" cx="1655.4781" cy="-326.5975" rx="22.9987" ry="22.9987"/>
<text text-anchor="middle" x="1655.4781" y="-322.8975" font-family="Times,serif" font-size="14.00" fill="#000000">q8</text>
</g>
<!-- q0&#45;&gt;q8 -->
<g id="edge3" class="edge">
<title>q0&#45;&gt;q8</title>
<path fill="none" stroke="#000000" d="M121.5572,-380.2304C129.6313,-425.0232 152.947,-510.5975 213.2439,-510.5975 213.2439,-510.5975 213.2439,-510.5975 1558.1326,-510.5975 1625.584,-510.5975 1646.4251,-412.7939 1652.767,-359.7978"/>
<polygon fill="#000000" stroke="#000000" points="1656.2819,-359.8485 1653.8818,-349.5292 1649.3228,-359.093 1656.2819,-359.8485"/>
<text text-anchor="middle" x="898.4625" y="-514.3975" font-family="Times,serif" font-size="14.00" fill="#000000">1</text>
</g>
<!-- q3 -->
<g id="node2" class="node">
<title>q3</title>
<ellipse fill="none" stroke="#000000" cx="948.2105" cy="-294.5975" rx="22.9609" ry="22.9609"/>
<ellipse fill="none" stroke="#000000" cx="948.2105" cy="-294.5975" rx="26.9983" ry="26.9983"/>
<text text-anchor="middle" x="948.2105" y="-290.8975" font-family="Times,serif" font-size="14.00" fill="#000000">q3</text>
</g>
<!-- q2 -->
<g id="node11" class="node">
<title>q2</title>
<ellipse fill="none" stroke="#000000" cx="852.7145" cy="-311.5975" rx="22.9987" ry="22.9987"/>
<text text-anchor="middle" x="852.7145" y="-307.8975" font-family="Times,serif" font-size="14.00" fill="#000000">q2</text>
</g>
<!-- q3&#45;&gt;q2 -->
<g id="edge9" class="edge">
<title>q3&#45;&gt;q2</title>
<path fill="none" stroke="#000000" d="M921.6769,-299.3209C910.413,-301.3261 897.1719,-303.6833 885.3195,-305.7932"/>
<polygon fill="#000000" stroke="#000000" points="884.5775,-302.3702 875.3457,-307.5687 885.8044,-309.2618 884.5775,-302.3702"/>
<text text-anchor="middle" x="898.4625" y="-308.3975" font-family="Times,serif" font-size="14.00" fill="#000000">1</text>
</g>
<!-- q6 -->
<g id="node13" class="node">
<title>q6</title>
<ellipse fill="none" stroke="#000000" cx="1043.7065" cy="-195.5975" rx="22.9987" ry="22.9987"/>
<text text-anchor="middle" x="1043.7065" y="-191.8975" font-family="Times,serif" font-size="14.00" fill="#000000">q6</text>
</g>
<!-- q3&#45;&gt;q6 -->
<g id="edge8" class="edge">
<title>q3&#45;&gt;q6</title>
<path fill="none" stroke="#000000" d="M967.3838,-275.6739C977.9682,-265.1432 991.2945,-251.7455 1002.9585,-239.5975 1008.9412,-233.3664 1015.3261,-226.5526 1021.2241,-220.1882"/>
<polygon fill="#000000" stroke="#000000" points="1024.1594,-222.1682 1028.3674,-212.4448 1019.0143,-217.4218 1024.1594,-222.1682"/>
<text text-anchor="middle" x="997.9585" y="-253.3975" font-family="Times,serif" font-size="14.00" fill="#000000">0</text>
</g>
<!-- q5 -->
<g id="node3" class="node">
<title>q5</title>
<ellipse fill="none" stroke="#000000" cx="1139.2024" cy="-240.5975" rx="22.9609" ry="22.9609"/>
<ellipse fill="none" stroke="#000000" cx="1139.2024" cy="-240.5975" rx="26.9983" ry="26.9983"/>
<text text-anchor="middle" x="1139.2024" y="-236.8975" font-family="Times,serif" font-size="14.00" fill="#000000">q5</text>
</g>
<!-- q10 -->
<g id="node5" class="node">
<title>q10</title>
<ellipse fill="none" stroke="#000000" cx="1244.5479" cy="-245.5975" rx="28.6832" ry="28.6832"/>
<ellipse fill="none" stroke="#000000" cx="1244.5479" cy="-245.5975" rx="32.6952" ry="32.6952"/>
<text text-anchor="middle" x="1244.5479" y="-241.8975" font-family="Times,serif" font-size="14.00" fill="#000000">q10</text>
</g>
<!-- q5&#45;&gt;q10 -->
<g id="edge12" class="edge">
<title>q5&#45;&gt;q10</title>
<path fill="none" stroke="#000000" d="M1161.1176,-224.9033C1170.9501,-219.6766 1182.8205,-215.8136 1193.9504,-218.5975 1198.6532,-219.7737 1203.3973,-221.4792 1207.997,-223.47"/>
<polygon fill="#000000" stroke="#000000" points="1206.6464,-226.704 1217.1759,-227.879 1209.6773,-220.3942 1206.6464,-226.704"/>
<text text-anchor="middle" x="1188.9504" y="-222.3975" font-family="Times,serif" font-size="14.00" fill="#000000">0</text>
</g>
<!-- q4 -->
<g id="node12" class="node">
<title>q4</title>
<ellipse fill="none" stroke="#000000" cx="1244.5479" cy="-370.5975" rx="22.9987" ry="22.9987"/>
<text text-anchor="middle" x="1244.5479" y="-366.8975" font-family="Times,serif" font-size="14.00" fill="#000000">q4</text>
</g>
<!-- q5&#45;&gt;q4 -->
<g id="edge13" class="edge">
<title>q5&#45;&gt;q4</title>
<path fill="none" stroke="#000000" d="M1157.0307,-260.9587C1168.0219,-273.7831 1182.2109,-290.838 1193.9504,-306.5975 1202.5661,-318.1634 1203.1637,-322.161 1211.9504,-333.5975 1215.1288,-337.7343 1218.641,-341.9982 1222.1481,-346.0942"/>
<polygon fill="#000000" stroke="#000000" points="1219.5757,-348.4693 1228.7969,-353.6866 1224.8419,-343.8577 1219.5757,-348.4693"/>
<text text-anchor="middle" x="1188.9504" y="-310.3975" font-family="Times,serif" font-size="14.00" fill="#000000">1</text>
</g>
<!-- q9 -->
<g id="node4" class="node">
<title>q9</title>
<ellipse fill="none" stroke="#000000" cx="310.5894" cy="-66.5975" rx="22.9609" ry="22.9609"/>
<ellipse fill="none" stroke="#000000" cx="310.5894" cy="-66.5975" rx="26.9983" ry="26.9983"/>
<text text-anchor="middle" x="310.5894" y="-62.8975" font-family="Times,serif" font-size="14.00" fill="#000000">q9</text>
</g>
<!-- q9&#45;&gt;q9 -->
<g id="edge20" class="edge">
<title>q9&#45;&gt;q9</title>
<path fill="none" stroke="#000000" d="M301.2968,-91.8984C300.6559,-102.4235 303.7535,-111.3454 310.5894,-111.3454 315.0755,-111.3454 317.9516,-107.5031 319.2177,-101.8868"/>
<polygon fill="#000000" stroke="#000000" points="322.7105,-102.1087 319.882,-91.8984 315.726,-101.6441 322.7105,-102.1087"/>
<text text-anchor="middle" x="310.5894" y="-115.1454" font-family="Times,serif" font-size="14.00" fill="#000000">0</text>
</g>
<!-- q11 -->
<g id="node16" class="node">
<title>q11</title>
<ellipse fill="none" stroke="#000000" cx="417.7843" cy="-28.5975" rx="28.6953" ry="28.6953"/>
<text text-anchor="middle" x="417.7843" y="-24.8975" font-family="Times,serif" font-size="14.00" fill="#000000">q11</text>
</g>
<!-- q9&#45;&gt;q11 -->
<g id="edge21" class="edge">
<title>q9&#45;&gt;q11</title>
<path fill="none" stroke="#000000" d="M335.9931,-57.592C349.5025,-52.803 366.3526,-46.8297 381.2423,-41.5514"/>
<polygon fill="#000000" stroke="#000000" points="382.4332,-44.8427 390.6891,-38.2026 380.0943,-38.245 382.4332,-44.8427"/>
<text text-anchor="middle" x="362.1869" y="-54.3975" font-family="Times,serif" font-size="14.00" fill="#000000">1</text>
</g>
<!-- q10&#45;&gt;q3 -->
<g id="edge23" class="edge">
<title>q10&#45;&gt;q3</title>
<path fill="none" stroke="#000000" d="M1223.2444,-270.4845C1212.7941,-281.9522 1200.9736,-293.672 1193.9504,-296.5975 1189.2189,-298.5683 1053.0516,-296.452 985.4923,-295.2751"/>
<polygon fill="#000000" stroke="#000000" points="985.3293,-291.7718 975.2692,-295.095 985.206,-298.7707 985.3293,-291.7718"/>
<text text-anchor="middle" x="1089.4544" y="-301.3975" font-family="Times,serif" font-size="14.00" fill="#000000">1</text>
</g>
<!-- q10&#45;&gt;q8 -->
<g id="edge22" class="edge">
<title>q10&#45;&gt;q8</title>
<path fill="none" stroke="#000000" d="M1277.3886,-245.5975C1298.604,-245.5975 1326.8051,-245.5975 1351.7428,-245.5975 1351.7428,-245.5975 1351.7428,-245.5975 1558.1326,-245.5975 1592.2037,-245.5975 1620.6968,-275.2795 1637.8801,-298.7077"/>
<polygon fill="#000000" stroke="#000000" points="1635.0809,-300.8121 1643.6884,-306.9896 1640.812,-296.7927 1635.0809,-300.8121"/>
<text text-anchor="middle" x="1454.9377" y="-249.3975" font-family="Times,serif" font-size="14.00" fill="#000000">0</text>
</g>
<!-- q14 -->
<g id="node6" class="node">
<title>q14</title>
<ellipse fill="none" stroke="#000000" cx="528.9792" cy="-206.5975" rx="28.6832" ry="28.6832"/>
<ellipse fill="none" stroke="#000000" cx="528.9792" cy="-206.5975" rx="32.6952" ry="32.6952"/>
<text text-anchor="middle" x="528.9792" y="-202.8975" font-family="Times,serif" font-size="14.00" fill="#000000">q14</text>
</g>
<!-- q15 -->
<g id="node7" class="node">
<title>q15</title>
<ellipse fill="none" stroke="#000000" cx="640.1742" cy="-269.5975" rx="28.6832" ry="28.6832"/>
<ellipse fill="none" stroke="#000000" cx="640.1742" cy="-269.5975" rx="32.6952" ry="32.6952"/>
<text text-anchor="middle" x="640.1742" y="-265.8975" font-family="Times,serif" font-size="14.00" fill="#000000">q15</text>
</g>
<!-- q14&#45;&gt;q15 -->
<g id="edge30" class="edge">
<title>q14&#45;&gt;q15</title>
<path fill="none" stroke="#000000" d="M557.6147,-222.8215C571.3631,-230.611 588.0138,-240.0448 602.7505,-248.3942"/>
<polygon fill="#000000" stroke="#000000" points="601.2098,-251.544 611.6357,-253.4284 604.6605,-245.4536 601.2098,-251.544"/>
<text text-anchor="middle" x="584.5767" y="-244.3975" font-family="Times,serif" font-size="14.00" fill="#000000">0</text>
</g>
<!-- q12 -->
<g id="node17" class="node">
<title>q12</title>
<ellipse fill="none" stroke="#000000" cx="310.5894" cy="-190.5975" rx="28.6953" ry="28.6953"/>
<text text-anchor="middle" x="310.5894" y="-186.8975" font-family="Times,serif" font-size="14.00" fill="#000000">q12</text>
</g>
<!-- q14&#45;&gt;q12 -->
<g id="edge31" class="edge">
<title>q14&#45;&gt;q12</title>
<path fill="none" stroke="#000000" d="M496.4899,-203.5237C482.3338,-202.231 465.5436,-200.7605 450.3818,-199.5975 416.3017,-196.9832 377.5077,-194.5268 349.4476,-192.8428"/>
<polygon fill="#000000" stroke="#000000" points="349.4412,-189.3363 339.251,-192.2365 349.0256,-196.324 349.4412,-189.3363"/>
<text text-anchor="middle" x="417.7843" y="-203.3975" font-family="Times,serif" font-size="14.00" fill="#000000">1</text>
</g>
<!-- q18 -->
<g id="node9" class="node">
<title>q18</title>
<ellipse fill="none" stroke="#000000" cx="751.3691" cy="-300.5975" rx="28.6832" ry="28.6832"/>
<ellipse fill="none" stroke="#000000" cx="751.3691" cy="-300.5975" rx="32.6952" ry="32.6952"/>
<text text-anchor="middle" x="751.3691" y="-296.8975" font-family="Times,serif" font-size="14.00" fill="#000000">q18</text>
</g>
<!-- q15&#45;&gt;q18 -->
<g id="edge33" class="edge">
<title>q15&#45;&gt;q18</title>
<path fill="none" stroke="#000000" d="M671.7407,-278.3979C683.596,-281.703 697.2564,-285.5114 709.8782,-289.0302"/>
<polygon fill="#000000" stroke="#000000" points="709.151,-292.4609 719.7236,-291.775 711.0309,-285.718 709.151,-292.4609"/>
<text text-anchor="middle" x="695.7716" y="-290.3975" font-family="Times,serif" font-size="14.00" fill="#000000">1</text>
</g>
<!-- q15&#45;&gt;q6 -->
<g id="edge32" class="edge">
<title>q15&#45;&gt;q6</title>
<path fill="none" stroke="#000000" d="M667.782,-251.9545C689.5905,-239.7134 721.2655,-225.5975 751.3691,-225.5975 751.3691,-225.5975 751.3691,-225.5975 948.2105,-225.5975 971.0429,-225.5975 995.5928,-217.6953 1014.0832,-210.0023"/>
<polygon fill="#000000" stroke="#000000" points="1015.6587,-213.1334 1023.4203,-205.9218 1012.8555,-206.7192 1015.6587,-213.1334"/>
<text text-anchor="middle" x="852.7145" y="-229.3975" font-family="Times,serif" font-size="14.00" fill="#000000">0</text>
</g>
<!-- q16 -->
<g id="node8" class="node">
<title>q16</title>
<ellipse fill="none" stroke="#000000" cx="417.7843" cy="-256.5975" rx="28.6832" ry="28.6832"/>
<ellipse fill="none" stroke="#000000" cx="417.7843" cy="-256.5975" rx="32.6952" ry="32.6952"/>
<text text-anchor="middle" x="417.7843" y="-252.8975" font-family="Times,serif" font-size="14.00" fill="#000000">q16</text>
</g>
<!-- q16&#45;&gt;q14 -->
<g id="edge34" class="edge">
<title>q16&#45;&gt;q14</title>
<path fill="none" stroke="#000000" d="M447.5825,-243.1984C460.5451,-237.3696 475.9119,-230.4598 489.7828,-224.2226"/>
<polygon fill="#000000" stroke="#000000" points="491.4138,-227.3268 499.0988,-220.0335 488.543,-220.9425 491.4138,-227.3268"/>
<text text-anchor="middle" x="473.3818" y="-237.3975" font-family="Times,serif" font-size="14.00" fill="#000000">0</text>
</g>
<!-- q16&#45;&gt;q8 -->
<g id="edge35" class="edge">
<title>q16&#45;&gt;q8</title>
<path fill="none" stroke="#000000" d="M420.2519,-289.5662C426.681,-348.91 449.4771,-467.5975 528.9792,-467.5975 528.9792,-467.5975 528.9792,-467.5975 1558.1326,-467.5975 1610.7579,-467.5975 1637.1376,-400.2596 1648.4142,-358.6538"/>
<polygon fill="#000000" stroke="#000000" points="1651.8117,-359.495 1650.9018,-348.9393 1645.0305,-357.7585 1651.8117,-359.495"/>
<text text-anchor="middle" x="1043.7065" y="-471.3975" font-family="Times,serif" font-size="14.00" fill="#000000">1</text>
</g>
<!-- q18&#45;&gt;q18 -->
<g id="edge39" class="edge">
<title>q18&#45;&gt;q18</title>
<path fill="none" stroke="#000000" d="M741.2466,-331.7252C741.1394,-342.4964 744.5136,-351.1949 751.3691,-351.1949 755.868,-351.1949 758.8676,-347.4488 760.368,-341.8291"/>
<polygon fill="#000000" stroke="#000000" points="763.8648,-342.0508 761.4916,-331.7252 756.9077,-341.2771 763.8648,-342.0508"/>
<text text-anchor="middle" x="751.3691" y="-354.9949" font-family="Times,serif" font-size="14.00" fill="#000000">1</text>
</g>
<!-- q18&#45;&gt;q2 -->
<g id="edge38" class="edge">
<title>q18&#45;&gt;q2</title>
<path fill="none" stroke="#000000" d="M783.9933,-304.1385C795.5119,-305.3887 808.4617,-306.7943 819.9887,-308.0454"/>
<polygon fill="#000000" stroke="#000000" points="819.7735,-311.5425 830.0928,-309.1421 820.5289,-304.5834 819.7735,-311.5425"/>
<text text-anchor="middle" x="806.9666" y="-311.3975" font-family="Times,serif" font-size="14.00" fill="#000000">0</text>
</g>
<!-- q1&#45;&gt;q9 -->
<g id="edge4" class="edge">
<title>q1&#45;&gt;q9</title>
<path fill="none" stroke="#000000" d="M227.3988,-172.5668C243.1536,-152.4981 268.8494,-119.7665 287.5193,-95.9844"/>
<polygon fill="#000000" stroke="#000000" points="290.3803,-98.0081 293.8023,-87.9811 284.8743,-93.6856 290.3803,-98.0081"/>
<text text-anchor="middle" x="258.9919" y="-140.3975" font-family="Times,serif" font-size="14.00" fill="#000000">0</text>
</g>
<!-- q1&#45;&gt;q12 -->
<g id="edge5" class="edge">
<title>q1&#45;&gt;q12</title>
<path fill="none" stroke="#000000" d="M236.3135,-190.5975C246.8369,-190.5975 259.5926,-190.5975 271.542,-190.5975"/>
<polygon fill="#000000" stroke="#000000" points="271.7592,-194.0976 281.7592,-190.5975 271.7591,-187.0976 271.7592,-194.0976"/>
<text text-anchor="middle" x="258.9919" y="-194.3975" font-family="Times,serif" font-size="14.00" fill="#000000">1</text>
</g>
<!-- q2&#45;&gt;q3 -->
<g id="edge6" class="edge">
<title>q2&#45;&gt;q3</title>
<path fill="none" stroke="#000000" d="M868.0603,-294.4046C875.0708,-287.8137 883.9341,-281.0506 893.4625,-277.5975 900.5388,-275.033 908.2119,-275.4672 915.5118,-277.3522"/>
<polygon fill="#000000" stroke="#000000" points="914.549,-280.7224 925.1437,-280.6766 916.8328,-274.1055 914.549,-280.7224"/>
<text text-anchor="middle" x="898.4625" y="-281.3975" font-family="Times,serif" font-size="14.00" fill="#000000">0</text>
</g>
<!-- q2&#45;&gt;q4 -->
<g id="edge7" class="edge">
<title>q2&#45;&gt;q4</title>
<path fill="none" stroke="#000000" d="M874.5159,-318.425C887.9442,-322.4293 905.5739,-327.328 921.4625,-330.5975 1005.6938,-347.9302 1027.0211,-351.7751 1112.4544,-361.5975 1146.1209,-365.4681 1184.8203,-367.8655 1211.59,-369.2028"/>
<polygon fill="#000000" stroke="#000000" points="1211.4245,-372.6988 1221.5802,-369.6802 1211.7587,-365.7067 1211.4245,-372.6988"/>
<text text-anchor="middle" x="1043.7065" y="-360.3975" font-family="Times,serif" font-size="14.00" fill="#000000">1</text>
</g>
<!-- q4&#45;&gt;q3 -->
<g id="edge10" class="edge">
<title>q4&#45;&gt;q3</title>
<path fill="none" stroke="#000000" d="M1222.1673,-365.8464C1178.0223,-356.3265 1076.7389,-333.7482 992.9585,-309.5975 989.8093,-308.6897 986.5517,-307.6993 983.2965,-306.6744"/>
<polygon fill="#000000" stroke="#000000" points="984.241,-303.3013 973.649,-303.544 982.0805,-309.9596 984.241,-303.3013"/>
<text text-anchor="middle" x="1089.4544" y="-340.3975" font-family="Times,serif" font-size="14.00" fill="#000000">0</text>
</g>
<!-- q13 -->
<g id="node18" class="node">
<title>q13</title>
<ellipse fill="none" stroke="#000000" cx="1351.7428" cy="-313.5975" rx="28.6953" ry="28.6953"/>
<text text-anchor="middle" x="1351.7428" y="-309.8975" font-family="Times,serif" font-size="14.00" fill="#000000">q13</text>
</g>
<!-- q4&#45;&gt;q13 -->
<g id="edge11" class="edge">
<title>q4&#45;&gt;q13</title>
<path fill="none" stroke="#000000" d="M1264.7104,-359.8762C1279.4479,-352.0397 1299.8006,-341.2173 1317.1189,-332.0084"/>
<polygon fill="#000000" stroke="#000000" points="1319.1869,-334.8729 1326.373,-327.0876 1315.9004,-328.6923 1319.1869,-334.8729"/>
<text text-anchor="middle" x="1300.1453" y="-346.3975" font-family="Times,serif" font-size="14.00" fill="#000000">1</text>
</g>
<!-- q6&#45;&gt;q5 -->
<g id="edge15" class="edge">
<title>q6&#45;&gt;q5</title>
<path fill="none" stroke="#000000" d="M1064.4277,-205.3618C1076.4616,-211.0325 1091.9107,-218.3125 1105.6392,-224.7816"/>
<polygon fill="#000000" stroke="#000000" points="1104.2675,-228.0044 1114.8055,-229.101 1107.2514,-221.6722 1104.2675,-228.0044"/>
<text text-anchor="middle" x="1089.4544" y="-223.3975" font-family="Times,serif" font-size="14.00" fill="#000000">1</text>
</g>
<!-- q6&#45;&gt;q8 -->
<g id="edge14" class="edge">
<title>q6&#45;&gt;q8</title>
<path fill="none" stroke="#000000" d="M1066.8466,-195.2707C1123.9719,-194.4932 1276.2777,-192.5975 1403.3403,-192.5975 1403.3403,-192.5975 1403.3403,-192.5975 1558.1326,-192.5975 1608.2592,-192.5975 1635.257,-254.7337 1647.3817,-294.3819"/>
<polygon fill="#000000" stroke="#000000" points="1644.0722,-295.5368 1650.2153,-304.1689 1650.796,-293.59 1644.0722,-295.5368"/>
<text text-anchor="middle" x="1351.7428" y="-197.3975" font-family="Times,serif" font-size="14.00" fill="#000000">0</text>
</g>
<!-- q7 -->
<g id="node14" class="node">
<title>q7</title>
<ellipse fill="none" stroke="#000000" cx="1746.974" cy="-146.5975" rx="22.9987" ry="22.9987"/>
<text text-anchor="middle" x="1746.974" y="-142.8975" font-family="Times,serif" font-size="14.00" fill="#000000">q7</text>
</g>
<!-- q7&#45;&gt;q14 -->
<g id="edge16" class="edge">
<title>q7&#45;&gt;q14</title>
<path fill="none" stroke="#000000" d="M1728.8703,-132.2791C1711.2037,-119.7704 1683.0339,-103.5975 1655.4781,-103.5975 1188.9504,-103.5975 1188.9504,-103.5975 1188.9504,-103.5975 1057.7134,-103.5975 1029.6995,-156.5975 898.4625,-156.5975 640.1742,-156.5975 640.1742,-156.5975 640.1742,-156.5975 612.9487,-156.5975 585.0108,-169.2198 563.9493,-181.7806"/>
<polygon fill="#000000" stroke="#000000" points="562.0064,-178.8672 555.3661,-187.123 565.7054,-184.8101 562.0064,-178.8672"/>
<text text-anchor="middle" x="1139.2024" y="-114.3975" font-family="Times,serif" font-size="14.00" fill="#000000">0</text>
</g>
<!-- q7&#45;&gt;q6 -->
<g id="edge17" class="edge">
<title>q7&#45;&gt;q6</title>
<path fill="none" stroke="#000000" d="M1724.037,-146.5975C1705.5312,-146.5975 1678.8286,-146.5975 1655.4781,-146.5975 1139.2024,-146.5975 1139.2024,-146.5975 1139.2024,-146.5975 1113.4201,-146.5975 1087.612,-160.9106 1069.3371,-174.0652"/>
<polygon fill="#000000" stroke="#000000" points="1066.8723,-171.5409 1061.0041,-180.3622 1071.0925,-177.1257 1066.8723,-171.5409"/>
<text text-anchor="middle" x="1403.3403" y="-150.3975" font-family="Times,serif" font-size="14.00" fill="#000000">1</text>
</g>
<!-- q8&#45;&gt;q15 -->
<g id="edge19" class="edge">
<title>q8&#45;&gt;q15</title>
<path fill="none" stroke="#000000" d="M1645.8279,-347.211C1631.1534,-375.1513 1600.4024,-421.5975 1558.1326,-421.5975 751.3691,-421.5975 751.3691,-421.5975 751.3691,-421.5975 696.502,-421.5975 665.7873,-356.2856 651.1366,-311.286"/>
<polygon fill="#000000" stroke="#000000" points="654.3938,-309.9731 648.0846,-301.4616 647.7089,-312.0498 654.3938,-309.9731"/>
<text text-anchor="middle" x="1139.2024" y="-425.3975" font-family="Times,serif" font-size="14.00" fill="#000000">1</text>
</g>
<!-- q8&#45;&gt;q7 -->
<g id="edge18" class="edge">
<title>q8&#45;&gt;q7</title>
<path fill="none" stroke="#000000" d="M1665.796,-306.2991C1681.927,-274.5645 1713.2009,-213.0393 1731.8703,-176.3111"/>
<polygon fill="#000000" stroke="#000000" points="1735.1422,-177.5983 1736.5535,-167.0978 1728.9021,-174.4263 1735.1422,-177.5983"/>
<text text-anchor="middle" x="1701.2261" y="-246.3975" font-family="Times,serif" font-size="14.00" fill="#000000">0</text>
</g>
<!-- q11&#45;&gt;q9 -->
<g id="edge25" class="edge">
<title>q11&#45;&gt;q9</title>
<path fill="none" stroke="#000000" d="M389.3557,-24.6898C378.9694,-24.2669 367.296,-24.9981 357.1869,-28.5975 350.0203,-31.1492 343.1578,-35.3274 337.0071,-39.9995"/>
<polygon fill="#000000" stroke="#000000" points="334.5539,-37.4873 329.0992,-46.57 339.0274,-42.8713 334.5539,-37.4873"/>
<text text-anchor="middle" x="362.1869" y="-32.3975" font-family="Times,serif" font-size="14.00" fill="#000000">1</text>
</g>
<!-- q11&#45;&gt;q11 -->
<g id="edge24" class="edge">
<title>q11&#45;&gt;q11</title>
<path fill="none" stroke="#000000" d="M407.7211,-55.4128C407.1526,-66.1678 410.507,-75.1949 417.7843,-75.1949 422.5601,-75.1949 425.6464,-71.3073 427.0432,-65.5949"/>
<polygon fill="#000000" stroke="#000000" points="430.549,-65.6574 427.8475,-55.4128 423.5708,-65.1061 430.549,-65.6574"/>
<text text-anchor="middle" x="417.7843" y="-78.9949" font-family="Times,serif" font-size="14.00" fill="#000000">0</text>
</g>
<!-- q12&#45;&gt;q16 -->
<g id="edge26" class="edge">
<title>q12&#45;&gt;q16</title>
<path fill="none" stroke="#000000" d="M335.1821,-205.7392C348.8231,-214.138 366.0512,-224.7454 381.2397,-234.0969"/>
<polygon fill="#000000" stroke="#000000" points="379.5539,-237.1691 389.9043,-239.4317 383.224,-231.2084 379.5539,-237.1691"/>
<text text-anchor="middle" x="362.1869" y="-227.3975" font-family="Times,serif" font-size="14.00" fill="#000000">0</text>
</g>
<!-- q12&#45;&gt;q6 -->
<g id="edge27" class="edge">
<title>q12&#45;&gt;q6</title>
<path fill="none" stroke="#000000" d="M329.0074,-168.2109C348.5979,-147.0751 381.6905,-118.5975 417.7843,-118.5975 417.7843,-118.5975 417.7843,-118.5975 948.2105,-118.5975 980.6922,-118.5975 1008.3658,-145.9275 1025.4315,-168.023"/>
<polygon fill="#000000" stroke="#000000" points="1022.687,-170.1984 1031.4406,-176.1671 1028.3197,-166.0423 1022.687,-170.1984"/>
<text text-anchor="middle" x="695.7716" y="-122.3975" font-family="Times,serif" font-size="14.00" fill="#000000">1</text>
</g>
<!-- q13&#45;&gt;q5 -->
<g id="edge28" class="edge">
<title>q13&#45;&gt;q5</title>
<path fill="none" stroke="#000000" d="M1322.9935,-311.5321C1294.0803,-308.707 1248.6483,-302.2018 1211.9504,-287.5975 1196.7397,-281.5442 1181.3088,-272.1387 1168.5962,-263.3272"/>
<polygon fill="#000000" stroke="#000000" points="1170.4357,-260.3398 1160.2656,-257.3703 1166.3641,-266.0339 1170.4357,-260.3398"/>
<text text-anchor="middle" x="1244.5479" y="-309.3975" font-family="Times,serif" font-size="14.00" fill="#000000">0</text>
</g>
<!-- q17 -->
<g id="node19" class="node">
<title>q17</title>
<ellipse fill="none" stroke="#000000" cx="1454.9377" cy="-364.5975" rx="28.6953" ry="28.6953"/>
<text text-anchor="middle" x="1454.9377" y="-360.8975" font-family="Times,serif" font-size="14.00" fill="#000000">q17</text>
</g>
<!-- q13&#45;&gt;q17 -->
<g id="edge29" class="edge">
<title>q13&#45;&gt;q17</title>
<path fill="none" stroke="#000000" d="M1377.517,-326.3354C1390.3224,-332.6639 1405.9867,-340.4054 1419.867,-347.2652"/>
<polygon fill="#000000" stroke="#000000" points="1418.6187,-350.5523 1429.1344,-351.8452 1421.7202,-344.2768 1418.6187,-350.5523"/>
<text text-anchor="middle" x="1403.3403" y="-345.3975" font-family="Times,serif" font-size="14.00" fill="#000000">1</text>
</g>
<!-- q17&#45;&gt;q4 -->
<g id="edge36" class="edge">
<title>q17&#45;&gt;q4</title>
<path fill="none" stroke="#000000" d="M1426.0202,-365.4221C1387.2363,-366.5282 1318.5346,-368.4875 1277.7016,-369.652"/>
<polygon fill="#000000" stroke="#000000" points="1277.3599,-366.1602 1267.4638,-369.9439 1277.5595,-373.1573 1277.3599,-366.1602"/>
<text text-anchor="middle" x="1351.7428" y="-372.3975" font-family="Times,serif" font-size="14.00" fill="#000000">0</text>
</g>
<!-- q19 -->
<g id="node20" class="node">
<title>q19</title>
<ellipse fill="none" stroke="#000000" cx="1558.1326" cy="-326.5975" rx="28.6953" ry="28.6953"/>
<text text-anchor="middle" x="1558.1326" y="-322.8975" font-family="Times,serif" font-size="14.00" fill="#000000">q19</text>
</g>
<!-- q17&#45;&gt;q19 -->
<g id="edge37" class="edge">
<title>q17&#45;&gt;q19</title>
<path fill="none" stroke="#000000" d="M1481.7816,-354.7126C1493.8691,-350.2616 1508.3319,-344.9358 1521.4029,-340.1226"/>
<polygon fill="#000000" stroke="#000000" points="1522.8901,-343.3048 1531.0647,-336.5648 1520.4712,-336.736 1522.8901,-343.3048"/>
<text text-anchor="middle" x="1506.5352" y="-351.3975" font-family="Times,serif" font-size="14.00" fill="#000000">1</text>
</g>
<!-- q19&#45;&gt;q8 -->
<g id="edge41" class="edge">
<title>q19&#45;&gt;q8</title>
<path fill="none" stroke="#000000" d="M1586.813,-326.5975C1597.977,-326.5975 1610.8395,-326.5975 1622.3922,-326.5975"/>
<polygon fill="#000000" stroke="#000000" points="1622.5473,-330.0976 1632.5472,-326.5975 1622.5472,-323.0976 1622.5473,-330.0976"/>
<text text-anchor="middle" x="1609.7301" y="-330.3975" font-family="Times,serif" font-size="14.00" fill="#000000">1</text>
</g>
<!-- q19&#45;&gt;q13 -->
<g id="edge40" class="edge">
<title>q19&#45;&gt;q13</title>
<path fill="none" stroke="#000000" d="M1530.3465,-319.6456C1516.3969,-316.5053 1499.178,-313.1546 1483.5352,-311.5975 1452.4145,-308.4996 1416.9597,-309.2795 1390.6684,-310.6796"/>
<polygon fill="#000000" stroke="#000000" points="1390.136,-307.2047 1380.3584,-311.2851 1390.5465,-314.1927 1390.136,-307.2047"/>
<text text-anchor="middle" x="1454.9377" y="-315.3975" font-family="Times,serif" font-size="14.00" fill="#000000">0</text>
</g>
<!-- iq0 -->
<g id="node21" class="node">
<title>iq0</title>
</g>
<!-- iq0&#45;&gt;q0 -->
<g id="edge1" class="edge">
<title>iq0&#45;&gt;q0</title>
<path fill="none" stroke="#0000ff" d="M54.2274,-353.5975C62.5578,-353.5975 71.8652,-353.5975 80.7317,-353.5975"/>
<polygon fill="#0000ff" stroke="#0000ff" points="80.8526,-357.0976 90.8525,-353.5975 80.8525,-350.0976 80.8526,-357.0976"/>
</g>
</g>
</svg>
