<?xml version="1.0" encoding="UTF-8" standalone="no"?>
<!DOCTYPE svg PUBLIC "-//W3C//DTD SVG 1.1//EN"
 "http://www.w3.org/Graphics/SVG/1.1/DTD/svg11.dtd">
<!-- Generated by graphviz version 2.40.1 (20161225.0304)
 -->
<!-- Title: %3 Pages: 1 -->
<svg width="198pt" height="305pt"
 viewBox="0.00 0.00 197.68 305.00" xmlns="http://www.w3.org/2000/svg" xmlns:xlink="http://www.w3.org/1999/xlink">
<g id="graph0" class="graph" transform="scale(1 1) rotate(0) translate(4 301)">
<title>%3</title>
<polygon fill="#ffffff" stroke="transparent" points="-4,4 -4,-301 193.6806,-301 193.6806,4 -4,4"/>
<!-- 0 -->
<g id="node1" class="node">
<title>0</title>
<ellipse fill="none" stroke="#000000" cx="117.6806" cy="-279" rx="27" ry="18"/>
<text text-anchor="middle" x="117.6806" y="-275.3" font-family="Times,serif" font-size="14.00" fill="#000000">0</text>
</g>
<!-- 0&#45;&gt;0 -->
<g id="edge1" class="edge">
<title>0&#45;&gt;0</title>
<path fill="none" stroke="#000000" d="M142.2131,-286.752C153.1884,-287.4902 162.6806,-284.9063 162.6806,-279 162.6806,-275.0317 158.3957,-272.5632 152.2549,-271.5944"/>
<polygon fill="#000000" stroke="#000000" points="152.3278,-268.0949 142.2131,-271.248 152.0865,-275.0908 152.3278,-268.0949"/>
<text text-anchor="middle" x="167.6806" y="-275.3" font-family="Times,serif" font-size="14.00" fill="#000000">1</text>
</g>
<!-- 2 -->
<g id="node2" class="node">
<title>2</title>
<ellipse fill="none" stroke="#000000" cx="68.6806" cy="-192" rx="27" ry="18"/>
<text text-anchor="middle" x="68.6806" y="-188.3" font-family="Times,serif" font-size="14.00" fill="#000000">2</text>
</g>
<!-- 0&#45;&gt;2 -->
<g id="edge2" class="edge">
<title>0&#45;&gt;2</title>
<path fill="none" stroke="#000000" d="M91.2764,-274.9351C72.541,-270.5225 48.672,-261.4519 36.6806,-243 30.3618,-233.2768 35.5288,-222.4033 43.4135,-213.2024"/>
<polygon fill="#000000" stroke="#000000" points="46.0231,-215.5392 50.4835,-205.929 41.0036,-210.6602 46.0231,-215.5392"/>
<text text-anchor="middle" x="41.6806" y="-231.8" font-family="Times,serif" font-size="14.00" fill="#000000">0</text>
</g>
<!-- 0&#45;&gt;2 -->
<g id="edge3" class="edge">
<title>0&#45;&gt;2</title>
<path fill="none" stroke="#000000" d="M95.7597,-268.4317C85.9212,-262.4429 75.2851,-253.9396 69.6806,-243 66.1273,-236.0641 64.8987,-227.8702 64.8164,-220.1029"/>
<polygon fill="#000000" stroke="#000000" points="68.321,-220.0898 65.3042,-209.9335 61.329,-219.7543 68.321,-220.0898"/>
<text text-anchor="middle" x="74.6806" y="-231.8" font-family="Times,serif" font-size="14.00" fill="#000000">2</text>
</g>
<!-- 3 -->
<g id="node3" class="node">
<title>3</title>
<ellipse fill="none" stroke="#000000" cx="101.6806" cy="-105" rx="27" ry="18"/>
<text text-anchor="middle" x="101.6806" y="-101.3" font-family="Times,serif" font-size="14.00" fill="#000000">3</text>
</g>
<!-- 0&#45;&gt;3 -->
<g id="edge4" class="edge">
<title>0&#45;&gt;3</title>
<path fill="none" stroke="#000000" d="M123.9599,-261.405C130.5761,-240.4419 139.2022,-204.4291 132.6806,-174 129.4787,-159.0603 122.7844,-143.4485 116.4333,-130.8611"/>
<polygon fill="#000000" stroke="#000000" points="119.4635,-129.1035 111.7071,-121.8863 113.2698,-132.3652 119.4635,-129.1035"/>
<text text-anchor="middle" x="139.6806" y="-188.3" font-family="Times,serif" font-size="14.00" fill="#000000">3</text>
</g>
<!-- 2&#45;&gt;0 -->
<g id="edge9" class="edge">
<title>2&#45;&gt;0</title>
<path fill="none" stroke="#000000" d="M78.1746,-208.8567C85.22,-221.3659 94.9582,-238.6561 103.003,-252.9398"/>
<polygon fill="#000000" stroke="#000000" points="100.0428,-254.8161 107.9998,-261.8116 106.142,-251.3809 100.0428,-254.8161"/>
<text text-anchor="middle" x="100.6806" y="-231.8" font-family="Times,serif" font-size="14.00" fill="#000000">1</text>
</g>
<!-- 2&#45;&gt;0 -->
<g id="edge10" class="edge">
<title>2&#45;&gt;0</title>
<path fill="none" stroke="#000000" d="M88.1505,-204.5339C96.0803,-210.6518 104.5671,-218.7044 109.6806,-228 113.4226,-234.8024 115.5482,-242.8407 116.7228,-250.4997"/>
<polygon fill="#000000" stroke="#000000" points="113.2547,-250.9855 117.7976,-260.5569 120.2151,-250.2416 113.2547,-250.9855"/>
<text text-anchor="middle" x="119.6806" y="-231.8" font-family="Times,serif" font-size="14.00" fill="#000000">2</text>
</g>
<!-- 2&#45;&gt;2 -->
<g id="edge11" class="edge">
<title>2&#45;&gt;2</title>
<path fill="none" stroke="#000000" d="M93.2131,-199.752C104.1884,-200.4902 113.6806,-197.9063 113.6806,-192 113.6806,-188.0317 109.3957,-185.5632 103.2549,-184.5944"/>
<polygon fill="#000000" stroke="#000000" points="103.3278,-181.0949 93.2131,-184.248 103.0865,-188.0908 103.3278,-181.0949"/>
<text text-anchor="middle" x="118.6806" y="-188.3" font-family="Times,serif" font-size="14.00" fill="#000000">3</text>
</g>
<!-- 2&#45;&gt;3 -->
<g id="edge12" class="edge">
<title>2&#45;&gt;3</title>
<path fill="none" stroke="#000000" d="M75.3587,-174.3943C79.9658,-162.2482 86.1792,-145.8674 91.4123,-132.0711"/>
<polygon fill="#000000" stroke="#000000" points="94.7384,-133.1709 95.0125,-122.5796 88.1934,-130.6882 94.7384,-133.1709"/>
<text text-anchor="middle" x="91.6806" y="-144.8" font-family="Times,serif" font-size="14.00" fill="#000000">0</text>
</g>
<!-- 3&#45;&gt;2 -->
<g id="edge14" class="edge">
<title>3&#45;&gt;2</title>
<path fill="none" stroke="#000000" d="M104.3156,-123.0592C105.0539,-133.0924 104.7481,-145.6094 100.6806,-156 98.7488,-160.9349 95.8123,-165.6327 92.487,-169.9084"/>
<polygon fill="#000000" stroke="#000000" points="89.7372,-167.7356 85.7751,-177.5617 95.0001,-172.3512 89.7372,-167.7356"/>
<text text-anchor="middle" x="108.6806" y="-144.8" font-family="Times,serif" font-size="14.00" fill="#000000">2</text>
</g>
<!-- 3&#45;&gt;2 -->
<g id="edge15" class="edge">
<title>3&#45;&gt;2</title>
<path fill="none" stroke="#000000" d="M84.3243,-118.968C78.1565,-125.0124 71.9387,-132.6241 68.6806,-141 65.9001,-148.1482 65.0013,-156.2983 65.0292,-163.9538"/>
<polygon fill="#000000" stroke="#000000" points="61.5341,-164.1425 65.5518,-173.946 68.5246,-163.7768 61.5341,-164.1425"/>
<text text-anchor="middle" x="73.6806" y="-144.8" font-family="Times,serif" font-size="14.00" fill="#000000">3</text>
</g>
<!-- 3&#45;&gt;3 -->
<g id="edge16" class="edge">
<title>3&#45;&gt;3</title>
<path fill="none" stroke="#000000" d="M126.2131,-112.752C137.1884,-113.4902 146.6806,-110.9063 146.6806,-105 146.6806,-101.0317 142.3957,-98.5632 136.2549,-97.5944"/>
<polygon fill="#000000" stroke="#000000" points="136.3278,-94.0949 126.2131,-97.248 136.0865,-101.0908 136.3278,-94.0949"/>
<text text-anchor="middle" x="151.6806" y="-101.3" font-family="Times,serif" font-size="14.00" fill="#000000">0</text>
</g>
<!-- 1 -->
<g id="node4" class="node">
<title>1</title>
<ellipse fill="none" stroke="#000000" cx="68.6806" cy="-18" rx="27" ry="18"/>
<text text-anchor="middle" x="68.6806" y="-14.3" font-family="Times,serif" font-size="14.00" fill="#000000">1</text>
</g>
<!-- 3&#45;&gt;1 -->
<g id="edge13" class="edge">
<title>3&#45;&gt;1</title>
<path fill="none" stroke="#000000" d="M95.0026,-87.3943C90.3955,-75.2482 84.1821,-58.8674 78.949,-45.0711"/>
<polygon fill="#000000" stroke="#000000" points="82.1678,-43.6882 75.3487,-35.5796 75.6228,-46.1709 82.1678,-43.6882"/>
<text text-anchor="middle" x="91.6806" y="-57.8" font-family="Times,serif" font-size="14.00" fill="#000000">1</text>
</g>
<!-- 1&#45;&gt;0 -->
<g id="edge5" class="edge">
<title>1&#45;&gt;0</title>
<path fill="none" stroke="#000000" d="M92.1027,-27.0424C115.5652,-37.5184 150.332,-57.2462 165.6806,-87 197.781,-149.2277 171.1667,-178.601 143.6806,-243 141.9783,-246.9885 139.7688,-250.9624 137.3571,-254.7354"/>
<polygon fill="#000000" stroke="#000000" points="134.3775,-252.8886 131.5068,-263.0871 140.1108,-256.9048 134.3775,-252.8886"/>
<text text-anchor="middle" x="184.6806" y="-144.8" font-family="Times,serif" font-size="14.00" fill="#000000">2</text>
</g>
<!-- 1&#45;&gt;2 -->
<g id="edge7" class="edge">
<title>1&#45;&gt;2</title>
<path fill="none" stroke="#000000" d="M48.8443,-30.3992C39.8138,-36.7041 29.4365,-44.9446 21.6806,-54 1.0641,-78.0708 -4.1503,-92.2897 3.6806,-123 7.8086,-139.1886 10.8128,-143.3113 21.6806,-156 27.134,-162.3671 33.8833,-168.3313 40.5493,-173.5031"/>
<polygon fill="#000000" stroke="#000000" points="38.714,-176.4979 48.8443,-179.6008 42.8601,-170.8578 38.714,-176.4979"/>
<text text-anchor="middle" x="8.6806" y="-101.3" font-family="Times,serif" font-size="14.00" fill="#000000">0</text>
</g>
<!-- 1&#45;&gt;2 -->
<g id="edge8" class="edge">
<title>1&#45;&gt;2</title>
<path fill="none" stroke="#000000" d="M64.3302,-36.0291C61.222,-49.8752 57.3127,-69.5225 55.6806,-87 52.8186,-117.649 55.9895,-125.7483 61.6806,-156 62.182,-158.6652 62.7103,-161.4401 63.2428,-164.2145"/>
<polygon fill="#000000" stroke="#000000" points="59.8123,-164.9099 65.1482,-174.063 66.6849,-163.5802 59.8123,-164.9099"/>
<text text-anchor="middle" x="60.6806" y="-101.3" font-family="Times,serif" font-size="14.00" fill="#000000">3</text>
</g>
<!-- 1&#45;&gt;1 -->
<g id="edge6" class="edge">
<title>1&#45;&gt;1</title>
<path fill="none" stroke="#000000" d="M93.2131,-25.752C104.1884,-26.4902 113.6806,-23.9063 113.6806,-18 113.6806,-14.0317 109.3957,-11.5632 103.2549,-10.5944"/>
<polygon fill="#000000" stroke="#000000" points="103.3278,-7.0949 93.2131,-10.248 103.0865,-14.0908 103.3278,-7.0949"/>
<text text-anchor="middle" x="118.6806" y="-14.3" font-family="Times,serif" font-size="14.00" fill="#000000">1</text>
</g>
</g>
</svg>
