<?xml version="1.0" encoding="UTF-8" standalone="no"?>
<!DOCTYPE svg PUBLIC "-//W3C//DTD SVG 1.1//EN"
 "http://www.w3.org/Graphics/SVG/1.1/DTD/svg11.dtd">
<!-- Generated by graphviz version 2.40.1 (20161225.0304)
 -->
<!-- Title: %3 Pages: 1 -->
<svg width="117pt" height="277pt"
 viewBox="0.00 0.00 116.59 277.00" xmlns="http://www.w3.org/2000/svg" xmlns:xlink="http://www.w3.org/1999/xlink">
<g id="graph0" class="graph" transform="scale(1 1) rotate(0) translate(4 273)">
<title>%3</title>
<polygon fill="#ffffff" stroke="transparent" points="-4,4 -4,-273 112.5928,-273 112.5928,4 -4,4"/>
<!-- entry -->
<g id="node1" class="node">
<title>entry</title>
<ellipse fill="none" stroke="#000000" cx="40.2964" cy="-251" rx="35.9954" ry="18"/>
<text text-anchor="middle" x="40.2964" y="-247.3" font-family="Times,serif" font-size="14.00" fill="#000000">entry</text>
</g>
<!-- 38402 -->
<g id="node2" class="node">
<title>38402</title>
<ellipse fill="none" stroke="#000000" cx="40.2964" cy="-178" rx="40.0939" ry="18"/>
<text text-anchor="middle" x="40.2964" y="-174.3" font-family="Times,serif" font-size="14.00" fill="#000000">38402</text>
</g>
<!-- entry&#45;&gt;38402 -->
<g id="edge1" class="edge">
<title>entry&#45;&gt;38402</title>
<path fill="none" stroke="#000000" d="M40.2964,-232.9551C40.2964,-224.8828 40.2964,-215.1764 40.2964,-206.1817"/>
<polygon fill="#000000" stroke="#000000" points="43.7965,-206.0903 40.2964,-196.0904 36.7965,-206.0904 43.7965,-206.0903"/>
</g>
<!-- 38402&#45;&gt;38402 -->
<g id="edge3" class="edge">
<title>38402&#45;&gt;38402</title>
<path fill="none" stroke="#000000" d="M77.863,-184.7434C89.4745,-184.6072 98.5928,-182.3594 98.5928,-178 98.5928,-175.071 94.4767,-173.0953 88.2537,-172.0727"/>
<polygon fill="#000000" stroke="#000000" points="88.1063,-168.5505 77.863,-171.2566 87.5582,-175.529 88.1063,-168.5505"/>
<text text-anchor="middle" x="103.5928" y="-174.3" font-family="Times,serif" font-size="14.00" fill="#000000">b</text>
</g>
<!-- 96751 -->
<g id="node3" class="node">
<title>96751</title>
<ellipse fill="none" stroke="#000000" cx="40.2964" cy="-91" rx="40.0939" ry="18"/>
<text text-anchor="middle" x="40.2964" y="-87.3" font-family="Times,serif" font-size="14.00" fill="#000000">96751</text>
</g>
<!-- 38402&#45;&gt;96751 -->
<g id="edge2" class="edge">
<title>38402&#45;&gt;96751</title>
<path fill="none" stroke="#000000" d="M30.6548,-160.2558C26.5012,-150.5382 23.052,-138.222 25.2964,-127 25.8691,-124.1368 26.6744,-121.2166 27.6179,-118.34"/>
<polygon fill="#000000" stroke="#000000" points="30.9349,-119.4641 31.2199,-108.8731 24.3925,-116.9748 30.9349,-119.4641"/>
<text text-anchor="middle" x="29.7964" y="-130.8" font-family="Times,serif" font-size="14.00" fill="#000000">a</text>
</g>
<!-- 96751&#45;&gt;38402 -->
<g id="edge5" class="edge">
<title>96751&#45;&gt;38402</title>
<path fill="none" stroke="#000000" d="M40.2964,-109.0034C40.2964,-120.7801 40.2964,-136.4102 40.2964,-149.8156"/>
<polygon fill="#000000" stroke="#000000" points="36.7965,-149.9735 40.2964,-159.9735 43.7965,-149.9736 36.7965,-149.9735"/>
<text text-anchor="middle" x="44.7964" y="-130.8" font-family="Times,serif" font-size="14.00" fill="#000000">a</text>
</g>
<!-- exit -->
<g id="node4" class="node">
<title>exit</title>
<ellipse fill="none" stroke="#000000" cx="40.2964" cy="-18" rx="28.6953" ry="18"/>
<text text-anchor="middle" x="40.2964" y="-14.3" font-family="Times,serif" font-size="14.00" fill="#000000">exit</text>
</g>
<!-- 96751&#45;&gt;exit -->
<g id="edge4" class="edge">
<title>96751&#45;&gt;exit</title>
<path fill="none" stroke="#000000" d="M40.2964,-72.9551C40.2964,-64.8828 40.2964,-55.1764 40.2964,-46.1817"/>
<polygon fill="#000000" stroke="#000000" points="43.7965,-46.0903 40.2964,-36.0904 36.7965,-46.0904 43.7965,-46.0903"/>
</g>
</g>
</svg>
