<?xml version="1.0" encoding="UTF-8" standalone="no"?>
<!DOCTYPE svg PUBLIC "-//W3C//DTD SVG 1.1//EN"
 "http://www.w3.org/Graphics/SVG/1.1/DTD/svg11.dtd">
<!-- Generated by graphviz version 2.40.1 (20161225.0304)
 -->
<!-- Title: %3 Pages: 1 -->
<svg width="99pt" height="364pt"
 viewBox="0.00 0.00 98.75 364.00" xmlns="http://www.w3.org/2000/svg" xmlns:xlink="http://www.w3.org/1999/xlink">
<g id="graph0" class="graph" transform="scale(1 1) rotate(0) translate(4 360)">
<title>%3</title>
<polygon fill="#ffffff" stroke="transparent" points="-4,4 -4,-360 94.7468,-360 94.7468,4 -4,4"/>
<!-- entry -->
<g id="node1" class="node">
<title>entry</title>
<ellipse fill="none" stroke="#000000" cx="35.7468" cy="-338" rx="35.9954" ry="18"/>
<text text-anchor="middle" x="35.7468" y="-334.3" font-family="Times,serif" font-size="14.00" fill="#000000">entry</text>
</g>
<!-- 0 -->
<g id="node2" class="node">
<title>0</title>
<ellipse fill="none" stroke="#000000" cx="35.7468" cy="-265" rx="27" ry="18"/>
<text text-anchor="middle" x="35.7468" y="-261.3" font-family="Times,serif" font-size="14.00" fill="#000000">0</text>
</g>
<!-- entry&#45;&gt;0 -->
<g id="edge1" class="edge">
<title>entry&#45;&gt;0</title>
<path fill="none" stroke="#000000" d="M35.7468,-319.9551C35.7468,-311.8828 35.7468,-302.1764 35.7468,-293.1817"/>
<polygon fill="#000000" stroke="#000000" points="39.2469,-293.0903 35.7468,-283.0904 32.2469,-293.0904 39.2469,-293.0903"/>
</g>
<!-- 0&#45;&gt;0 -->
<g id="edge2" class="edge">
<title>0&#45;&gt;0</title>
<path fill="none" stroke="#000000" d="M61.1903,-271.6907C71.7747,-272.1521 80.7468,-269.9219 80.7468,-265 80.7468,-261.77 76.8828,-259.6992 71.235,-258.7876"/>
<polygon fill="#000000" stroke="#000000" points="71.3455,-255.289 61.1903,-258.3093 71.0125,-262.2811 71.3455,-255.289"/>
<text text-anchor="middle" x="85.7468" y="-261.3" font-family="Times,serif" font-size="14.00" fill="#000000">1</text>
</g>
<!-- 1 -->
<g id="node3" class="node">
<title>1</title>
<ellipse fill="none" stroke="#000000" cx="35.7468" cy="-178" rx="27" ry="18"/>
<text text-anchor="middle" x="35.7468" y="-174.3" font-family="Times,serif" font-size="14.00" fill="#000000">1</text>
</g>
<!-- 0&#45;&gt;1 -->
<g id="edge3" class="edge">
<title>0&#45;&gt;1</title>
<path fill="none" stroke="#000000" d="M35.7468,-246.9735C35.7468,-235.1918 35.7468,-219.5607 35.7468,-206.1581"/>
<polygon fill="#000000" stroke="#000000" points="39.2469,-206.0033 35.7468,-196.0034 32.2469,-206.0034 39.2469,-206.0033"/>
<text text-anchor="middle" x="40.7468" y="-217.8" font-family="Times,serif" font-size="14.00" fill="#000000">2</text>
</g>
<!-- 2 -->
<g id="node4" class="node">
<title>2</title>
<ellipse fill="none" stroke="#000000" cx="35.7468" cy="-91" rx="27" ry="18"/>
<text text-anchor="middle" x="35.7468" y="-87.3" font-family="Times,serif" font-size="14.00" fill="#000000">2</text>
</g>
<!-- 1&#45;&gt;2 -->
<g id="edge4" class="edge">
<title>1&#45;&gt;2</title>
<path fill="none" stroke="#000000" d="M26.3067,-160.724C22.0643,-150.9358 18.4662,-138.403 20.7468,-127 21.3643,-123.9127 22.2523,-120.7592 23.2923,-117.6654"/>
<polygon fill="#000000" stroke="#000000" points="26.6337,-118.7291 26.9868,-108.1401 20.1074,-116.1977 26.6337,-118.7291"/>
<text text-anchor="middle" x="25.7468" y="-130.8" font-family="Times,serif" font-size="14.00" fill="#000000">1</text>
</g>
<!-- 1&#45;&gt;2 -->
<g id="edge5" class="edge">
<title>1&#45;&gt;2</title>
<path fill="none" stroke="#000000" d="M35.7468,-159.9735C35.7468,-148.1918 35.7468,-132.5607 35.7468,-119.1581"/>
<polygon fill="#000000" stroke="#000000" points="39.2469,-119.0033 35.7468,-109.0034 32.2469,-119.0034 39.2469,-119.0033"/>
<text text-anchor="middle" x="40.7468" y="-130.8" font-family="Times,serif" font-size="14.00" fill="#000000">2</text>
</g>
<!-- 2&#45;&gt;2 -->
<g id="edge7" class="edge">
<title>2&#45;&gt;2</title>
<path fill="none" stroke="#000000" d="M61.1903,-97.6907C71.7747,-98.1521 80.7468,-95.9219 80.7468,-91 80.7468,-87.77 76.8828,-85.6992 71.235,-84.7876"/>
<polygon fill="#000000" stroke="#000000" points="71.3455,-81.289 61.1903,-84.3093 71.0125,-88.2811 71.3455,-81.289"/>
<text text-anchor="middle" x="85.7468" y="-87.3" font-family="Times,serif" font-size="14.00" fill="#000000">1</text>
</g>
<!-- exit -->
<g id="node5" class="node">
<title>exit</title>
<ellipse fill="none" stroke="#000000" cx="35.7468" cy="-18" rx="28.6953" ry="18"/>
<text text-anchor="middle" x="35.7468" y="-14.3" font-family="Times,serif" font-size="14.00" fill="#000000">exit</text>
</g>
<!-- 2&#45;&gt;exit -->
<g id="edge6" class="edge">
<title>2&#45;&gt;exit</title>
<path fill="none" stroke="#000000" d="M35.7468,-72.9551C35.7468,-64.8828 35.7468,-55.1764 35.7468,-46.1817"/>
<polygon fill="#000000" stroke="#000000" points="39.2469,-46.0903 35.7468,-36.0904 32.2469,-46.0904 39.2469,-46.0903"/>
</g>
</g>
</svg>
